<svg width="20" height="20" viewBox="0 0 20 20" fill="none" xmlns="http://www.w3.org/2000/svg">
<path d="M10.5303 14.5303C10.2374 14.8232 9.76256 14.8232 9.46967 14.5303L6.46967 11.5303L7.53033 10.4697L9.25 12.1893V6H10.75V12.1893L12.4697 10.4697L13.5303 11.5303L10.5303 14.5303Z" fill="black"/>
<path fill-rule="evenodd" clip-rule="evenodd" d="M20 10C20 4.47715 15.5228 0 10 0C4.47715 0 0 4.47715 0 10C0 15.5228 4.47715 20 10 20C15.5228 20 20 15.5228 20 10ZM18.5 10C18.5 5.30558 14.6944 1.5 10 1.5C5.30558 1.5 1.5 5.30558 1.5 10C1.5 14.6944 5.30558 18.5 10 18.5C14.6944 18.5 18.5 14.6944 18.5 10Z" fill="black"/>
</svg>
