<svg width="69" height="20" viewBox="0 0 69 20" fill="none" xmlns="http://www.w3.org/2000/svg">
    <path fill-rule="evenodd" clip-rule="evenodd"
        d="M26.8676 19.6364C25.4468 19.6364 24.2211 19.328 23.1907 18.7112C22.1667 18.0881 21.3762 17.2196 20.8194 16.1056C20.269 14.9853 19.9938 13.6825 19.9938 12.1972C19.9938 10.7119 20.269 9.4028 20.8194 8.26993C21.3762 7.13077 22.1507 6.24336 23.1427 5.60769C24.1411 4.96573 25.306 4.64476 26.6372 4.64476C27.4053 4.64476 28.1637 4.77063 28.9125 5.02238C29.6613 5.27413 30.343 5.68322 30.9574 6.24965C31.5718 6.80979 32.0614 7.55245 32.4262 8.47762C32.7911 9.4028 32.9735 10.542 32.9735 11.8951V12.8392H22.2645C22.297 13.8039 22.4873 14.6315 22.8355 15.322C23.2259 16.0773 23.7667 16.6531 24.4579 17.0496C25.1492 17.4399 25.9524 17.635 26.8676 17.635C27.4629 17.635 28.0005 17.5531 28.4805 17.3895C28.9669 17.2196 29.3861 16.9678 29.7381 16.6343C30.0902 16.2944 30.3622 15.8727 30.5542 15.3692L32.7431 15.9734C32.5126 16.7035 32.1254 17.3455 31.5814 17.8993C31.0374 18.4469 30.3654 18.8748 29.5653 19.1832C28.7653 19.4853 27.8661 19.6364 26.8676 19.6364ZM22.7875 9.00629C22.4858 9.60498 22.3134 10.2406 22.2703 10.9133H30.6694C30.6694 10.0951 30.503 9.36503 30.1702 8.72308C29.8438 8.08112 29.3765 7.57448 28.7685 7.20315C28.1669 6.83182 27.4565 6.64615 26.6372 6.64615C25.7348 6.64615 24.954 6.86643 24.2947 7.30699C23.6419 7.74126 23.1395 8.30769 22.7875 9.00629Z"
        fill="black" />
    <path d="M31.015 0V1.88811H22.0291V0L31.015 0Z" fill="black" />
    <path
        d="M34.489 4.83356V19.3343H36.7546V10.2713C36.7546 9.56013 36.9082 8.93391 37.2155 8.39265C37.5291 7.84509 37.9387 7.41712 38.4443 7.10873C38.9563 6.80034 39.5067 6.64614 40.0956 6.64614C40.9532 6.64614 41.654 6.90104 42.198 7.41083C42.7421 7.91432 43.0141 8.57831 43.0141 9.40279V19.3343H45.3182V9.8937C45.3182 8.95593 45.603 8.18181 46.1726 7.57132C46.7422 6.95453 47.5454 6.64614 48.5823 6.64614C49.3887 6.64614 50.0895 6.87586 50.6848 7.3353C51.28 7.79474 51.5776 8.55943 51.5776 9.62936V19.3343H53.8433V9.62936C53.8433 7.92377 53.4241 6.66817 52.5856 5.86258C51.7472 5.05069 50.6688 4.64474 49.3503 4.64474C48.2943 4.64474 47.3886 4.86817 46.6334 5.31502C45.8782 5.75558 45.3118 6.35034 44.9341 7.09929H44.7805C44.4157 6.32516 43.9069 5.72412 43.2541 5.29614C42.6077 4.86188 41.798 4.64474 40.8252 4.64474C39.8652 4.64474 39.0427 4.86188 38.3579 5.29614C37.6731 5.72412 37.1771 6.32516 36.8698 7.09929H36.6778V4.83356H34.489Z"
        fill="black" />
    <path fill-rule="evenodd" clip-rule="evenodd"
        d="M58.5413 18.7017C59.5461 19.3248 60.7142 19.6364 62.0454 19.6364C63.3767 19.6364 64.5415 19.3248 65.54 18.7017C66.5448 18.0787 67.3256 17.207 67.8824 16.0867C68.4457 14.9664 68.7273 13.6573 68.7273 12.1594C68.7273 10.6489 68.4457 9.33041 67.8824 8.20383C67.3256 7.07726 66.5448 6.20244 65.54 5.57936C64.5415 4.95628 63.3767 4.64474 62.0454 4.64474C60.7142 4.64474 59.5461 4.95628 58.5413 5.57936C57.5429 6.20244 56.762 7.07726 56.1988 8.20383C55.642 9.33041 55.3636 10.6489 55.3636 12.1594C55.3636 13.6573 55.642 14.9664 56.1988 16.0867C56.762 17.207 57.5429 18.0787 58.5413 18.7017ZM64.5415 16.8703C63.8887 17.3801 63.0567 17.635 62.0454 17.635C61.0342 17.635 60.2022 17.3801 59.5493 16.8703C58.8965 16.3605 58.4133 15.6902 58.0997 14.8594C57.7861 14.0287 57.6293 13.1287 57.6293 12.1594C57.6293 11.1902 57.7861 10.2871 58.0997 9.44999C58.4133 8.61293 58.8965 7.93635 59.5493 7.42027C60.2022 6.90419 61.0342 6.64614 62.0454 6.64614C63.0567 6.64614 63.8887 6.90419 64.5415 7.42027C65.1943 7.93635 65.6776 8.61293 65.9912 9.44999C66.3048 10.2871 66.4616 11.1902 66.4616 12.1594C66.4616 13.1287 66.3048 14.0287 65.9912 14.8594C65.6776 15.6902 65.1943 16.3605 64.5415 16.8703Z"
        fill="black" />
    <path
        d="M0 4.83357L4.49297 19.3343H6.72025L9.94597 8.19441H10.1764L13.4021 19.3343H15.6294L20.1224 4.83357H17.7415L14.5541 15.8979H14.4005L11.29 4.83357H8.87073L5.72182 15.9357H5.56821L2.38089 4.83357H0Z"
        fill="black" />
</svg>
